<?xml version="1.0" standalone="no"?>
<!DOCTYPE svg PUBLIC "-//W3C//DTD SVG 20010904//EN"
 "http://www.w3.org/TR/2001/REC-SVG-20010904/DTD/svg10.dtd">
<svg version="1.0" xmlns="http://www.w3.org/2000/svg"
 width="182.000000pt" height="139.000000pt" viewBox="0 0 182.000000 139.000000"
 preserveAspectRatio="xMidYMid meet">

<g transform="translate(0.000000,139.000000) scale(0.100000,-0.100000)"
fill="#000000" stroke="none">
<path d="M458 1353 c-21 -2 -38 -8 -38 -14 0 -5 -10 -9 -22 -9 -12 0 -59 -18
-103 -40 -84 -42 -115 -73 -176 -177 -15 -25 -31 -48 -37 -52 -20 -12 -52
-154 -52 -226 1 -90 30 -215 50 -215 5 0 12 -10 16 -22 16 -51 103 -165 138
-182 20 -9 44 -25 54 -35 23 -24 95 -51 134 -51 25 0 42 -11 82 -53 28 -29 63
-59 77 -66 14 -7 38 -23 53 -36 29 -25 124 -60 194 -71 23 -4 42 -10 42 -15 0
-5 8 -9 18 -9 14 0 23 18 40 73 13 39 25 77 28 83 3 8 -18 13 -66 16 -39 2
-74 8 -78 14 -4 6 -28 19 -54 29 -72 27 -77 40 -23 60 25 10 45 21 45 24 0 4
13 14 28 23 96 57 191 208 211 336 11 69 6 190 -9 240 -22 69 -74 166 -106
199 -18 18 -36 38 -41 46 -16 27 -95 76 -151 93 -31 10 -60 21 -63 26 -6 10
-139 18 -191 11z m210 -198 c152 -71 229 -233 192 -406 -15 -71 -76 -170 -118
-192 -15 -8 -45 -24 -67 -36 -21 -12 -50 -21 -62 -21 -13 0 -23 -4 -23 -10 0
-5 -22 -10 -50 -10 -27 0 -50 4 -50 9 0 4 -21 11 -47 15 -57 8 -121 44 -155
88 -14 18 -37 46 -51 62 -30 34 -37 64 -44 170 -7 113 18 177 102 261 47 47
74 67 107 75 23 6 48 13 53 15 6 2 44 4 85 4 60 1 86 -4 128 -24z"/>
<path d="M1174 1343 c-3 -10 -14 -40 -24 -68 -9 -27 -25 -75 -34 -105 -24 -76
-49 -134 -61 -142 -7 -6 -6 -10 1 -15 41 -29 44 -336 3 -363 -5 -3 -15 -25
-24 -49 -30 -85 -114 -211 -142 -211 -7 0 -13 -5 -13 -10 0 -6 -16 -20 -35
-31 -19 -12 -35 -25 -35 -30 0 -6 37 -9 88 -7 l87 3 34 104 c19 58 41 113 50
123 14 16 35 18 218 18 230 0 210 8 240 -92 8 -28 21 -58 29 -65 8 -8 14 -23
14 -34 0 -49 14 -57 104 -58 l85 -1 -14 47 c-8 27 -15 51 -15 55 0 4 -6 13
-12 20 -7 7 -46 113 -87 236 -40 122 -77 222 -81 222 -4 0 -10 12 -13 28 -3
15 -11 41 -18 57 -6 17 -13 37 -14 45 -2 8 -17 51 -33 95 -17 44 -37 106 -46
137 -9 31 -23 63 -31 72 -8 8 -15 19 -15 25 0 7 -36 11 -100 11 -87 0 -101 -2
-106 -17z m116 -242 c0 -5 6 -16 13 -23 8 -7 29 -58 47 -113 18 -55 39 -106
47 -113 7 -7 13 -22 13 -31 0 -10 7 -34 15 -54 8 -19 11 -37 8 -41 -10 -10
-293 -7 -293 4 0 34 69 241 87 258 7 7 13 20 13 28 0 22 31 94 41 94 5 0 9 -4
9 -9z"/>
</g>
</svg>
